<svg xmlns="http://www.w3.org/2000/svg" width="50" height="61" viewBox="0 0 350 432" fill="none"><g><path fill="#ff7100" d="M193.94,266.74h21.91V149.56h0a21.91,21.91,0,0,0-21.91,21.91Z"/><path fill="#ff7100" d="M230.76,266.74h21.92V149.56h0a21.91,21.91,0,0,0-21.92,21.91Z"/><path fill="#ff7100" d="M141.14,268.85c-33,0-46.68-22.93-45.31-46.35,1.07-18.2,15.07-38.92,44-38.92,32.71,0,45.84,29.65,41.08,51.6H119.44c1.23,8.24,9.22,13.92,20,14.64,12.91.86,21.24-8.83,21.24-8.83l16.64,8.79C169.19,263.31,156.26,268.85,141.14,268.85Zm-1.36-66.22c-15.51-.1-20.26,13.07-20.17,16.81h39.62C159.6,216.15,156.42,202.73,139.78,202.63Z"/><path fill="#ff7100" d="M84.33,215.82c-3.53-14.78-12.5-25.23-27-30-13.21-4.47-27.35-1.86-35.36,5.74V149.32h0A21.91,21.91,0,0,0,0,171.24v95.31H18.65l.63-5.65c17.26,13.86,45.09,7.56,56.23-6.65C84,243.5,87.71,230,84.33,215.82Zm-22,17.56c-2.63,8.59-8.69,13.88-17.7,14.91-8.52,1-16.46-1.77-22.21-8.79V213.23a22.84,22.84,0,0,1,15-9.07C58.12,202,66,219.35,62.33,233.38Z"/><path fill="#ff7100" d="M230.89,117.22H252.8V0h0A21.91,21.91,0,0,0,230.89,22Z"/><path fill="#ff7100" d="M108.49,20.86h21.29V0H108.37A35,35,0,0,0,73.32,35.05V140.67h0a21.92,21.92,0,0,0,21.92-21.92v-51H120V46.89H95.24V34.11A13.25,13.25,0,0,1,108.49,20.86Z"/><path fill="#ff7100" d="M216.18,38.31a20.81,20.81,0,0,0-13,4.54c-10.78-7.78-26.55-11.83-44-5.93-14.46,4.79-23.38,15.17-26.89,29.87-3.36,14,.37,27.52,8.76,38.21,11,14.07,38.52,20.33,55.69,6.79l1.73,5.44h17.66V38.31ZM194.52,90.84c-6.17,7.12-14.24,8.75-22.71,7.78-9-1-15-5.83-17.6-14.37-3.66-14,4.18-31.62,24.75-29.5,11.3,1.75,15.56,10,15.56,10Z"/><path fill="#ff7100" d="M338.19,42.85c-10.78-7.78-26.55-11.83-44-5.93-14.46,4.79-23.38,15.17-26.89,29.87-3.36,14,.37,27.52,8.76,38.21,11,14.07,38.52,20.33,55.69,6.79l1.73,5.44h17.66V38.31A20.81,20.81,0,0,0,338.19,42.85Zm-8.67,48c-6.17,7.12-14.24,8.75-22.71,7.78-9-1-15-5.83-17.6-14.37-3.66-14,4.18-31.62,24.75-29.5,11.3,1.75,15.56,10,15.56,10Z"/><path fill="#ff7100" d="M351.05,187.83a20.7,20.7,0,0,0-13,4.54c-10.79-7.78-26.56-11.83-44-5.94-14.46,4.79-23.38,15.18-26.89,29.88-3.36,14.05.37,27.51,8.76,38.21,11,14.06,38.52,20.33,55.7,6.78l1.73,5.44h17.65V187.83ZM329.4,240.35c-6.18,7.13-14.25,8.75-22.72,7.79-9-1-15-5.83-17.6-14.37-3.66-14,4.18-31.62,24.75-29.51,11.3,1.76,15.57,10,15.57,10Z"/><path fill="#ff7100" d="M210.46,298.55c-19.43,0-34.1,14.49-34.1,33.71S191,366.1,210.46,366.1s34.23-14.54,34.23-33.84S230,298.55,210.46,298.55Zm0,51.24c-9.58,0-16.52-7.37-16.52-17.54,0-9.92,7.1-17.4,16.52-17.4s16.67,7.48,16.67,17.4S220,349.79,210.45,349.79Z"/><path fill="#ff7100" d="M325.49,298.55C315.41,297.77,306.81,303,302,306c-5.52-4.45-11.65-7.42-19.51-7.42-14.62,0-29.54,8.77-29.54,8.77v57.24H270V317.11c2.75-2,7.72-2.26,10.5-2.26,5.83,0,12.63,4.57,12.63,12.29v37.42h17.06V322.84a11.52,11.52,0,0,0-.92-5.07c11.38-6.35,24.7-1.51,24.7,9.37v37.42h17.06V326.88C351.05,308.58,336.89,299.42,325.49,298.55Z"/><path fill="#ff7100" d="M130.58,329.53c1.32-7.83,8.17-14.68,16.27-14.68A27.8,27.8,0,0,1,163,320.23l8.72-13.69a41.24,41.24,0,0,0-24.07-8c-16.06,0-28.93,9.46-33.28,23.24A27.94,27.94,0,0,1,130.58,329.53Z"/><path fill="#ff7100" d="M163.43,344a26.86,26.86,0,0,1-16.58,5.75,15,15,0,0,1-7.87-2.28c.05.69.09,1.39.09,2.1a27.88,27.88,0,0,1-4,14.39,37.62,37.62,0,0,0,12.54,2.1c16,0,24.93-9.25,24.93-9.25Z"/><circle fill="#ff7100" cx="111.04" cy="349.62" r="15.69"/></g></svg>